<svg xmlns="http://www.w3.org/2000/svg" version="1.1" xmlns:xlink="http://www.w3.org/1999/xlink" xmlns:svgjs="http://svgjs.com/svgjs" width="512" height="512" x="0" y="0" viewBox="0 0 497.66 497.66" style="enable-background:new 0 0 512 512" xml:space="preserve" class=""><g><g xmlns="http://www.w3.org/2000/svg"><path d="m276.445 124.049-2.761 39.954 29.882 21.178h173.301l20.793-21.178v-39.954z" fill="#e1e8ef" data-original="#f3eae6" class=""></path><path d="m443.663 113.773h-418.703c-13.78 0-24.96 11.17-24.96 24.95v25.28l35.47 42.387h408.193z" fill="#3d87d6" data-original="#f37c7c" class=""></path><path d="m62.655 113.773h-37.695c-13.78 0-24.96 11.17-24.96 24.95v25.28l35.47 42.387h27.185z" fill="#2d73bc" data-original="#ee6161" class=""></path><path d="m424.088 113.773h-160.756c.001 36.475 15.444 69.407 40.128 92.617h120.628z" fill="#2d73bc" data-original="#ee6161" class=""></path><g id="XMLID_277_"><g><path d="m497.66 164.003v302.09c0 13.78-11.18 24.96-24.96 24.96h-447.74c-13.78 0-24.96-11.18-24.96-24.96v-302.09h232.07z" fill="#fafcff" data-original="#f9f3f1" class=""></path></g></g><path d="m273.684 164.003c19.515 45.207 64.525 76.929 116.81 76.929 44.963 0 84.549-23.458 107.166-58.776v-18.153z" fill="#e1e8ef" data-original="#f3eae6" class=""></path><path d="m87.615 456.289c-13.78 0-24.96-11.18-24.96-24.96v-267.327h-62.655v302.09c0 13.78 11.18 24.96 24.96 24.96h447.74c13.78 0 24.96-11.18 24.96-24.96v-9.804h-410.045z" fill="#e1e8ef" data-original="#f3eae6" class=""></path><g><path d="m404.162 294.702h-310.664c-11.005 0-19.926 8.921-19.926 19.926v99.942c0 11.005 8.921 19.926 19.926 19.926h310.663c11.005 0 19.926-8.921 19.926-19.926v-99.942c.001-11.005-8.921-19.926-19.925-19.926z" fill="#b8c5d4" data-original="#e1d3ce" class=""></path><circle cx="390.494" cy="113.77" fill="#3d87d6" r="107.162" data-original="#f37c7c" class=""></circle><path d="m433.816 78.082-9.356-8.997c-3.388-3.258-8.775-3.153-12.033.235l-15.799 16.429c-3.348 3.482-8.92 3.482-12.268 0l-15.799-16.429c-3.258-3.388-8.645-3.493-12.033-.235l-9.356 8.997c-3.388 3.258-3.493 8.645-.235 12.033l17.075 17.756c3.168 3.294 3.168 8.503 0 11.797l-17.075 17.756c-3.258 3.388-3.152 8.775.235 12.033l9.356 8.997c3.388 3.258 8.775 3.153 12.033-.235l15.799-16.429c3.348-3.482 8.92-3.482 12.268 0l15.799 16.429c3.258 3.388 8.645 3.493 12.033.235l9.356-8.997c3.388-3.258 3.493-8.645.235-12.033l-17.075-17.756c-3.168-3.294-3.168-8.503 0-11.797l17.075-17.756c3.258-3.388 3.153-8.775-.235-12.033z" fill="#fafcff" data-original="#f9f3f1" class=""></path><g><g><path d="m194.809 404.827c-.022 0-.044 0-.066 0-4.142-.036-7.471-3.423-7.435-7.564.035-4.091.071-8.635.106-13.372h-27.924c-2.653 0-5.109-1.402-6.458-3.687s-1.39-5.113-.108-7.437c5.609-10.168 24.224-43.726 28.231-48.643 3.582-4.394 8.438-6.175 12.991-4.764 4.596 1.423 7.859 5.867 8.314 11.321.211 2.54.157 21.063.056 38.208h1.521c4.142 0 7.5 3.357 7.5 7.5s-3.358 7.5-7.5 7.5h-1.621c-.045 6.085-.086 11.001-.108 13.501-.037 4.122-3.388 7.437-7.499 7.437zm-22.577-35.936h15.28c.059-10.177.099-19.984.095-26.976-3.964 6.731-9.607 16.65-15.375 26.976z" fill="#fafcff" data-original="#f9f3f1" class=""></path></g></g><g><g><path d="m329.94 404.827c-.022 0-.044 0-.066 0-4.142-.036-7.471-3.423-7.435-7.564.035-4.091.071-8.635.106-13.372h-27.924c-2.653 0-5.109-1.402-6.458-3.687s-1.39-5.113-.108-7.437c5.609-10.168 24.223-43.726 28.231-48.643 3.581-4.394 8.435-6.176 12.991-4.764 4.596 1.423 7.859 5.867 8.314 11.321.211 2.54.157 21.063.056 38.208h1.521c4.142 0 7.5 3.357 7.5 7.5s-3.358 7.5-7.5 7.5h-1.622c-.045 6.085-.086 11.001-.108 13.501-.035 4.122-3.386 7.437-7.498 7.437zm-22.576-35.936h15.28c.059-10.176.099-19.984.095-26.976-3.964 6.731-9.606 16.65-15.375 26.976z" fill="#fafcff" data-original="#f9f3f1" class=""></path></g></g><g><g><path d="m248.432 408.341c-15.446 0-28.013-12.566-28.013-28.014v-32.807c0-15.446 12.567-28.013 28.013-28.013 15.447 0 28.014 12.566 28.014 28.013v32.807c-.001 15.448-12.568 28.014-28.014 28.014zm0-73.833c-7.175 0-13.013 5.838-13.013 13.013v32.807c0 7.176 5.838 13.014 13.013 13.014 7.176 0 13.014-5.838 13.014-13.014v-32.807c-.001-7.175-5.839-13.013-13.014-13.013z" fill="#fafcff" data-original="#f9f3f1" class=""></path></g></g></g></g></g></svg>
