<?xml version="1.0" encoding="utf-8"?>
<!-- Generator: Adobe Illustrator 26.1.0, SVG Export Plug-In . SVG Version: 6.00 Build 0)  -->
<svg version="1.1" id="Слой_1" xmlns="http://www.w3.org/2000/svg" xmlns:xlink="http://www.w3.org/1999/xlink" x="0px" y="0px"
	 width="60px" height="68px" viewBox="0 0 60 68" style="enable-background:new 0 0 60 68;" xml:space="preserve">
<style type="text/css">
	.st0{fill:#FF0000;}
	.st1{fill-rule:evenodd;clip-rule:evenodd;fill:#FF0000;}
	.st2{fill:#FFFFFF;}
</style>
<g>
	<g transform="translate(7 5)">
		<g>
			<path id="ae96eeecd750ec2a83543f00c9bc789d__b_1_" class="st0" d="M23.5,51.5c0,0.3-0.2,0.5-0.5,0.5s-0.5-0.2-0.5-0.5
				c-0.1-3.2-1.8-5.2-4.8-6.1C7.5,43,0,33.9,0,23C0,10.3,10.3,0,23,0s23,10.3,23,23c0,10.9-7.5,20-17.7,22.4
				C25.3,46.3,23.7,48.4,23.5,51.5L23.5,51.5z"/>
		</g>
		<g>
			<path class="st0" d="M23.5,51.5c0,0.3-0.2,0.5-0.5,0.5s-0.5-0.2-0.5-0.5c-0.1-3.2-1.8-5.2-4.8-6.1C7.5,43,0,33.9,0,23
				C0,10.3,10.3,0,23,0s23,10.3,23,23c0,10.9-7.5,20-17.7,22.4C25.3,46.3,23.7,48.4,23.5,51.5L23.5,51.5z"/>
		</g>
	</g>
	<path class="st1" d="M30,66c1.1,0,2-0.8,2-2s-0.8-2-2-2h-0.1c-1.1,0-2,0.9-2,2C28.1,65.1,28.9,66,30,66z"/>
</g>
<g>
	<g id="Page-1">
		<g id="_x30_37---Waypoint-Flag" transform="translate(0 -1)">
			<path id="Shape" class="st2" d="M23.2,45.7l0.5-0.1c0.5-0.1,0.8-0.6,0.6-1.1l-5.8-20.7c-0.1-0.3-0.3-0.5-0.5-0.7
				c-0.3-0.1-0.6-0.2-0.9-0.1l-0.1,0c-0.6,0.2-1,0.8-0.8,1.4l5.8,20.7C22.2,45.6,22.7,45.9,23.2,45.7L23.2,45.7z"/>
			<path id="Shape_00000161593875262536768230000014410900370291549063_" class="st2" d="M43.6,31.3c-1.8-0.9-3.5-2.1-5.1-3.5
				c-0.1-0.1-0.2-0.3-0.1-0.5c0.7-2.8,1.3-5.7,1.7-8.6c0.1-0.5-0.2-0.6-0.5-0.3c-5.4,6.5-14.7-1.2-20.3,4.7c0.1,0.1,0.1,0.3,0.2,0.4
				l3.8,13.5c5.6-5.8,14.9,1.8,20.3-4.7C43.8,32,43.8,31.4,43.6,31.3L43.6,31.3z"/>
		</g>
	</g>
</g>
</svg>
